{
    "asset" : {
        "generator" : "Khronos glTF Blender I/O v3.3.27",
        "version" : "2.0"
    },
    "scene" : 0,
    "scenes" : [
        {
            "name" : "Scene",
            "nodes" : [
                0
            ]
        }
    ],
    "nodes" : [
        {
            "mesh" : 0,
            "name" : "BuildingA"
        }
    ],
    "materials" : [
        {
            "doubleSided" : true,
            "name" : "M_BuildingA",
            "pbrMetallicRoughness" : {
                "metallicFactor" : 0,
                "roughnessFactor" : 0.5
            }
        }
    ],
    "meshes" : [
        {
            "name" : "\u7acb\u65b9\u4f53.034",
            "primitives" : [
                {
                    "attributes" : {
                        "POSITION" : 0,
                        "NORMAL" : 1,
                        "TEXCOORD_0" : 2
                    },
                    "indices" : 3,
                    "material" : 0
                }
            ]
        }
    ],
    "accessors" : [
        {
            "bufferView" : 0,
            "componentType" : 5126,
            "count" : 400,
            "max" : [
                15.728282928466797,
                21.23491668701172,
                10.694527626037598
            ],
            "min" : [
                -15.77160930633545,
                -0.011117398738861084,
                -9.741833686828613
            ],
            "type" : "VEC3"
        },
        {
            "bufferView" : 1,
            "componentType" : 5126,
            "count" : 400,
            "type" : "VEC3"
        },
        {
            "bufferView" : 2,
            "componentType" : 5126,
            "count" : 400,
            "type" : "VEC2"
        },
        {
            "bufferView" : 3,
            "componentType" : 5123,
            "count" : 636,
            "type" : "SCALAR"
        }
    ],
    "bufferViews" : [
        {
            "buffer" : 0,
            "byteLength" : 4800,
            "byteOffset" : 0,
            "target" : 34962
        },
        {
            "buffer" : 0,
            "byteLength" : 4800,
            "byteOffset" : 4800,
            "target" : 34962
        },
        {
            "buffer" : 0,
            "byteLength" : 3200,
            "byteOffset" : 9600,
            "target" : 34962
        },
        {
            "buffer" : 0,
            "byteLength" : 1272,
            "byteOffset" : 12800,
            "target" : 34963
        }
    ],
    "buffers" : [
        {
            "byteLength" : 14072,
            "uri" : "BuildingA.bin"
        }
    ]
}
