{
    "asset" : {
        "generator" : "Khronos glTF Blender I/O v3.3.27",
        "version" : "2.0"
    },
    "scene" : 0,
    "scenes" : [
        {
            "name" : "Scene",
            "nodes" : [
                0
            ]
        }
    ],
    "nodes" : [
        {
            "mesh" : 0,
            "name" : "Ground",
            "scale" : [
                1.1582050323486328,
                1,
                1
            ],
            "translation" : [
                0,
                0.09030503034591675,
                0
            ]
        }
    ],
    "materials" : [
        {
            "doubleSided" : true,
            "name" : "M_Gree",
            "pbrMetallicRoughness" : {
                "baseColorFactor" : [
                    0.41156867146492004,
                    0.41156867146492004,
                    0.41156867146492004,
                    1
                ],
                "metallicFactor" : 0,
                "roughnessFactor" : 0.5
            }
        },
        {
            "doubleSided" : true,
            "name" : "M_Wod",
            "pbrMetallicRoughness" : {
                "baseColorFactor" : [
                    0,
                    0.16999007761478424,
                    0.0004453421279322356,
                    1
                ],
                "metallicFactor" : 0,
                "roughnessFactor" : 0.5
            }
        },
        {
            "doubleSided" : true,
            "name" : "M_Wod2",
            "pbrMetallicRoughness" : {
                "baseColorFactor" : [
                    0.15319271385669708,
                    0.057362187653779984,
                    0.0030232202261686325,
                    1
                ],
                "metallicFactor" : 0,
                "roughnessFactor" : 0.5
            }
        },
        {
            "doubleSided" : true,
            "name" : "M_Load",
            "pbrMetallicRoughness" : {
                "baseColorFactor" : [
                    0.2317667454481125,
                    0.21058019995689392,
                    0.20815560221672058,
                    1
                ],
                "metallicFactor" : 0,
                "roughnessFactor" : 0.5
            }
        },
        {
            "doubleSided" : true,
            "name" : "M_Load1",
            "pbrMetallicRoughness" : {
                "baseColorFactor" : [
                    0.0558231882750988,
                    0.0558231882750988,
                    0.0558231882750988,
                    1
                ],
                "metallicFactor" : 0,
                "roughnessFactor" : 0.5
            }
        },
        {
            "doubleSided" : true,
            "name" : "M_Ground2",
            "pbrMetallicRoughness" : {
                "baseColorFactor" : [
                    0.09285254776477814,
                    0.09285254776477814,
                    0.09285254776477814,
                    1
                ],
                "metallicFactor" : 0,
                "roughnessFactor" : 0.5
            }
        },
        {
            "doubleSided" : true,
            "name" : "M_Ground",
            "pbrMetallicRoughness" : {
                "baseColorTexture" : {
                    "index" : 0
                },
                "metallicFactor" : 0,
                "roughnessFactor" : 0.5
            }
        }
    ],
    "meshes" : [
        {
            "name" : "\u7acb\u65b9\u4f53.004",
            "primitives" : [
                {
                    "attributes" : {
                        "POSITION" : 0,
                        "NORMAL" : 1,
                        "TEXCOORD_0" : 2
                    },
                    "indices" : 3,
                    "material" : 0
                },
                {
                    "attributes" : {
                        "POSITION" : 4,
                        "NORMAL" : 5,
                        "TEXCOORD_0" : 6
                    },
                    "indices" : 7,
                    "material" : 1
                },
                {
                    "attributes" : {
                        "POSITION" : 8,
                        "NORMAL" : 9,
                        "TEXCOORD_0" : 10
                    },
                    "indices" : 11,
                    "material" : 2
                },
                {
                    "attributes" : {
                        "POSITION" : 12,
                        "NORMAL" : 13,
                        "TEXCOORD_0" : 14
                    },
                    "indices" : 15,
                    "material" : 3
                },
                {
                    "attributes" : {
                        "POSITION" : 16,
                        "NORMAL" : 17,
                        "TEXCOORD_0" : 18
                    },
                    "indices" : 19,
                    "material" : 4
                },
                {
                    "attributes" : {
                        "POSITION" : 20,
                        "NORMAL" : 21,
                        "TEXCOORD_0" : 22
                    },
                    "indices" : 23,
                    "material" : 5
                },
                {
                    "attributes" : {
                        "POSITION" : 24,
                        "NORMAL" : 25,
                        "TEXCOORD_0" : 26
                    },
                    "indices" : 27,
                    "material" : 6
                }
            ]
        }
    ],
    "textures" : [
        {
            "sampler" : 0,
            "source" : 0
        }
    ],
    "images" : [
        {
            "mimeType" : "image/png",
            "name" : "Ground",
            "uri" : "Ground.png"
        }
    ],
    "accessors" : [
        {
            "bufferView" : 0,
            "componentType" : 5126,
            "count" : 649,
            "max" : [
                62.070533752441406,
                1.2412586212158203,
                125.83124542236328
            ],
            "min" : [
                -153.39871215820312,
                -0.05778604745864868,
                -104.7872314453125
            ],
            "type" : "VEC3"
        },
        {
            "bufferView" : 1,
            "componentType" : 5126,
            "count" : 649,
            "type" : "VEC3"
        },
        {
            "bufferView" : 2,
            "componentType" : 5126,
            "count" : 649,
            "type" : "VEC2"
        },
        {
            "bufferView" : 3,
            "componentType" : 5123,
            "count" : 1167,
            "type" : "SCALAR"
        },
        {
            "bufferView" : 4,
            "componentType" : 5126,
            "count" : 35712,
            "max" : [
                153.26431274414062,
                4.7311272621154785,
                42.1782112121582
            ],
            "min" : [
                -94.78094482421875,
                0.6715387105941772,
                -203.48936462402344
            ],
            "type" : "VEC3"
        },
        {
            "bufferView" : 5,
            "componentType" : 5126,
            "count" : 35712,
            "type" : "VEC3"
        },
        {
            "bufferView" : 6,
            "componentType" : 5126,
            "count" : 35712,
            "type" : "VEC2"
        },
        {
            "bufferView" : 7,
            "componentType" : 5123,
            "count" : 58776,
            "type" : "SCALAR"
        },
        {
            "bufferView" : 8,
            "componentType" : 5126,
            "count" : 7936,
            "max" : [
                152.6040496826172,
                1.6277878284454346,
                41.41349792480469
            ],
            "min" : [
                -94.12068176269531,
                0.6715387105941772,
                -202.72463989257812
            ],
            "type" : "VEC3"
        },
        {
            "bufferView" : 9,
            "componentType" : 5126,
            "count" : 7936,
            "type" : "VEC3"
        },
        {
            "bufferView" : 10,
            "componentType" : 5126,
            "count" : 7936,
            "type" : "VEC2"
        },
        {
            "bufferView" : 11,
            "componentType" : 5123,
            "count" : 11904,
            "type" : "SCALAR"
        },
        {
            "bufferView" : 12,
            "componentType" : 5126,
            "count" : 2296,
            "max" : [
                134.39590454101562,
                1.029998779296875,
                109.18372344970703
            ],
            "min" : [
                -130.96533203125,
                0.42867928743362427,
                -165.6710968017578
            ],
            "type" : "VEC3"
        },
        {
            "bufferView" : 13,
            "componentType" : 5126,
            "count" : 2296,
            "type" : "VEC3"
        },
        {
            "bufferView" : 14,
            "componentType" : 5126,
            "count" : 2296,
            "type" : "VEC2"
        },
        {
            "bufferView" : 15,
            "componentType" : 5123,
            "count" : 3792,
            "type" : "SCALAR"
        },
        {
            "bufferView" : 16,
            "componentType" : 5126,
            "count" : 429,
            "max" : [
                134.39590454101562,
                1.0249416828155518,
                107.78077697753906
            ],
            "min" : [
                -130.96533203125,
                0.42867928743362427,
                -165.6710968017578
            ],
            "type" : "VEC3"
        },
        {
            "bufferView" : 17,
            "componentType" : 5126,
            "count" : 429,
            "type" : "VEC3"
        },
        {
            "bufferView" : 18,
            "componentType" : 5126,
            "count" : 429,
            "type" : "VEC2"
        },
        {
            "bufferView" : 19,
            "componentType" : 5123,
            "count" : 813,
            "type" : "SCALAR"
        },
        {
            "bufferView" : 20,
            "componentType" : 5126,
            "count" : 84,
            "max" : [
                229.73971557617188,
                67.04335021972656,
                225.70370483398438
            ],
            "min" : [
                -219.2896270751953,
                -1.8692436218261719,
                -248.2244873046875
            ],
            "type" : "VEC3"
        },
        {
            "bufferView" : 21,
            "componentType" : 5126,
            "count" : 84,
            "type" : "VEC3"
        },
        {
            "bufferView" : 22,
            "componentType" : 5126,
            "count" : 84,
            "type" : "VEC2"
        },
        {
            "bufferView" : 23,
            "componentType" : 5123,
            "count" : 174,
            "type" : "SCALAR"
        },
        {
            "bufferView" : 24,
            "componentType" : 5126,
            "count" : 4,
            "max" : [
                207.5106201171875,
                0.7437916398048401,
                202.2420196533203
            ],
            "min" : [
                -197.060546875,
                0.7437916398048401,
                -224.76280212402344
            ],
            "type" : "VEC3"
        },
        {
            "bufferView" : 25,
            "componentType" : 5126,
            "count" : 4,
            "type" : "VEC3"
        },
        {
            "bufferView" : 26,
            "componentType" : 5126,
            "count" : 4,
            "type" : "VEC2"
        },
        {
            "bufferView" : 27,
            "componentType" : 5123,
            "count" : 6,
            "type" : "SCALAR"
        }
    ],
    "bufferViews" : [
        {
            "buffer" : 0,
            "byteLength" : 7788,
            "byteOffset" : 0,
            "target" : 34962
        },
        {
            "buffer" : 0,
            "byteLength" : 7788,
            "byteOffset" : 7788,
            "target" : 34962
        },
        {
            "buffer" : 0,
            "byteLength" : 5192,
            "byteOffset" : 15576,
            "target" : 34962
        },
        {
            "buffer" : 0,
            "byteLength" : 2334,
            "byteOffset" : 20768,
            "target" : 34963
        },
        {
            "buffer" : 0,
            "byteLength" : 428544,
            "byteOffset" : 23104,
            "target" : 34962
        },
        {
            "buffer" : 0,
            "byteLength" : 428544,
            "byteOffset" : 451648,
            "target" : 34962
        },
        {
            "buffer" : 0,
            "byteLength" : 285696,
            "byteOffset" : 880192,
            "target" : 34962
        },
        {
            "buffer" : 0,
            "byteLength" : 117552,
            "byteOffset" : 1165888,
            "target" : 34963
        },
        {
            "buffer" : 0,
            "byteLength" : 95232,
            "byteOffset" : 1283440,
            "target" : 34962
        },
        {
            "buffer" : 0,
            "byteLength" : 95232,
            "byteOffset" : 1378672,
            "target" : 34962
        },
        {
            "buffer" : 0,
            "byteLength" : 63488,
            "byteOffset" : 1473904,
            "target" : 34962
        },
        {
            "buffer" : 0,
            "byteLength" : 23808,
            "byteOffset" : 1537392,
            "target" : 34963
        },
        {
            "buffer" : 0,
            "byteLength" : 27552,
            "byteOffset" : 1561200,
            "target" : 34962
        },
        {
            "buffer" : 0,
            "byteLength" : 27552,
            "byteOffset" : 1588752,
            "target" : 34962
        },
        {
            "buffer" : 0,
            "byteLength" : 18368,
            "byteOffset" : 1616304,
            "target" : 34962
        },
        {
            "buffer" : 0,
            "byteLength" : 7584,
            "byteOffset" : 1634672,
            "target" : 34963
        },
        {
            "buffer" : 0,
            "byteLength" : 5148,
            "byteOffset" : 1642256,
            "target" : 34962
        },
        {
            "buffer" : 0,
            "byteLength" : 5148,
            "byteOffset" : 1647404,
            "target" : 34962
        },
        {
            "buffer" : 0,
            "byteLength" : 3432,
            "byteOffset" : 1652552,
            "target" : 34962
        },
        {
            "buffer" : 0,
            "byteLength" : 1626,
            "byteOffset" : 1655984,
            "target" : 34963
        },
        {
            "buffer" : 0,
            "byteLength" : 1008,
            "byteOffset" : 1657612,
            "target" : 34962
        },
        {
            "buffer" : 0,
            "byteLength" : 1008,
            "byteOffset" : 1658620,
            "target" : 34962
        },
        {
            "buffer" : 0,
            "byteLength" : 672,
            "byteOffset" : 1659628,
            "target" : 34962
        },
        {
            "buffer" : 0,
            "byteLength" : 348,
            "byteOffset" : 1660300,
            "target" : 34963
        },
        {
            "buffer" : 0,
            "byteLength" : 48,
            "byteOffset" : 1660648,
            "target" : 34962
        },
        {
            "buffer" : 0,
            "byteLength" : 48,
            "byteOffset" : 1660696,
            "target" : 34962
        },
        {
            "buffer" : 0,
            "byteLength" : 32,
            "byteOffset" : 1660744,
            "target" : 34962
        },
        {
            "buffer" : 0,
            "byteLength" : 12,
            "byteOffset" : 1660776,
            "target" : 34963
        }
    ],
    "samplers" : [
        {
            "magFilter" : 9729,
            "minFilter" : 9987
        }
    ],
    "buffers" : [
        {
            "byteLength" : 1660788,
            "uri" : "Ground.bin"
        }
    ]
}
